<?xml version="1.0" encoding="utf-8"?>
<!-- Generator: Adobe Illustrator 25.2.0, SVG Export Plug-In . SVG Version: 6.00 Build 0)  -->
<svg version="1.1" id="Layer_1" focusable="false" xmlns="http://www.w3.org/2000/svg" xmlns:xlink="http://www.w3.org/1999/xlink"
	 x="0px" y="0px" viewBox="0 0 84 84" style="enable-background:new 0 0 84 84;" xml:space="preserve">
<style type="text/css">
	.st0{fill:#FE8D03;}
</style>
<path class="st0" d="M73.3,56.5V9.6c0-1.9-1.5-3.3-3.3-3.3H24.1c-7.4,0-13.4,6-13.4,13.4v44.7c0,7.4,6,13.4,13.4,13.4h45.8
	c1.9,0,3.3-1.5,3.3-3.3v-2.2c0-1-0.5-2-1.2-2.6c-0.6-2.1-0.6-8.3,0-10.4C72.8,58.5,73.3,57.6,73.3,56.5L73.3,56.5z M28.6,25
	c0-0.5,0.4-0.8,0.8-0.8H59c0.5,0,0.8,0.4,0.8,0.8v2.8c0,0.5-0.4,0.8-0.8,0.8H29.4c-0.5,0-0.8-0.4-0.8-0.8V25z M28.6,33.9
	c0-0.5,0.4-0.8,0.8-0.8H59c0.5,0,0.8,0.4,0.8,0.8v2.8c0,0.5-0.4,0.8-0.8,0.8H29.4c-0.5,0-0.8-0.4-0.8-0.8V33.9z M64,68.8H24.1
	c-2.5,0-4.5-2-4.5-4.5c0-2.5,2-4.5,4.5-4.5H64C63.7,62.3,63.7,66.4,64,68.8z"/>
</svg>
