<?xml version="1.0" encoding="utf-8"?>
<!-- Generator: Adobe Illustrator 25.2.0, SVG Export Plug-In . SVG Version: 6.00 Build 0)  -->
<svg version="1.1" id="Layer_1" focusable="false" xmlns="http://www.w3.org/2000/svg" xmlns:xlink="http://www.w3.org/1999/xlink"
	 x="0px" y="0px" viewBox="0 0 576 512" style="enable-background:new 0 0 576 512;" xml:space="preserve">
<style type="text/css">
	.st0{fill:#59D379;}
</style>
<path class="st0" d="M464,0H112C86.4,0,64,22.4,64,48v416c0,25.6,22.4,48,48,48h352c25.6,0,48-22.4,48-48V48C512,22.4,489.6,0,464,0
	z M192,435.2c0,6.4-6.4,12.8-12.8,12.8h-38.4c-6.4,0-12.8-6.4-12.8-12.8v-38.4c0-6.4,6.4-12.8,12.8-12.8h38.4
	c6.4,0,12.8,6.4,12.8,12.8V435.2z M192,307.2c0,6.4-6.4,12.8-12.8,12.8h-38.4c-6.4,0-12.8-6.4-12.8-12.8v-38.4
	c0-6.4,6.4-12.8,12.8-12.8h38.4c6.4,0,12.8,6.4,12.8,12.8V307.2z M320,435.2c0,6.4-6.4,12.8-12.8,12.8h-38.4
	c-6.4,0-12.8-6.4-12.8-12.8v-38.4c0-6.4,6.4-12.8,12.8-12.8h38.4c6.4,0,12.8,6.4,12.8,12.8V435.2L320,435.2z M320,307.2
	c0,6.4-6.4,12.8-12.8,12.8h-38.4c-6.4,0-12.8-6.4-12.8-12.8v-38.4c0-6.4,6.4-12.8,12.8-12.8h38.4c6.4,0,12.8,6.4,12.8,12.8V307.2
	L320,307.2z M448,435.2c0,6.4-6.4,12.8-12.8,12.8h-38.4c-6.4,0-12.8-6.4-12.8-12.8V268.8c0-6.4,6.4-12.8,12.8-12.8h38.4
	c6.4,0,12.8,6.4,12.8,12.8V435.2L448,435.2z M448,179.2c0,6.4-6.4,12.8-12.8,12.8H140.8c-6.4,0-12.8-6.4-12.8-12.8V76.8
	c0-6.4,6.4-12.8,12.8-12.8h294.4c6.4,0,12.8,6.4,12.8,12.8V179.2z"/>
</svg>
