<svg width="217" height="37" viewBox="0 0 217 37" fill="none" xmlns="http://www.w3.org/2000/svg">
<path d="M11.64 26.7093H26.424C26.776 26.7093 27.08 26.8373 27.336 27.0933C27.592 27.3493 27.72 27.6533 27.72 28.0053V34.7733C27.72 35.1253 27.592 35.4293 27.336 35.6853C27.08 35.9413 26.776 36.0693 26.424 36.0693H1.416C1.064 36.0693 0.76 35.9413 0.504 35.6853C0.248 35.4293 0.12 35.1253 0.12 34.7733V3.76533C0.12 3.41333 0.248 3.10933 0.504 2.85333C0.76 2.59733 1.064 2.46933 1.416 2.46933H26.04C26.392 2.46933 26.696 2.59733 26.952 2.85333C27.208 3.10933 27.336 3.41333 27.336 3.76533V10.5333C27.336 10.8853 27.208 11.1893 26.952 11.4453C26.696 11.7013 26.392 11.8293 26.04 11.8293H11.64V14.8533H24.984C25.336 14.8533 25.64 14.9813 25.896 15.2373C26.152 15.4933 26.28 15.7973 26.28 16.1493V22.3893C26.28 22.7413 26.152 23.0453 25.896 23.3013C25.64 23.5573 25.336 23.6853 24.984 23.6853H11.64V26.7093ZM32.055 25.4613V21.6693C32.055 18.0853 33.015 15.3493 34.935 13.4613C36.855 11.5733 39.191 10.6293 41.943 10.6293C44.727 10.6293 46.951 11.3813 48.615 12.8853V3.28533C48.615 2.93334 48.743 2.62934 48.999 2.37333C49.255 2.11733 49.559 1.98933 49.911 1.98933H58.791C59.143 1.98933 59.447 2.11733 59.703 2.37333C59.959 2.62934 60.087 2.93334 60.087 3.28533V34.7733C60.087 35.1253 59.959 35.4293 59.703 35.6853C59.447 35.9413 59.143 36.0693 58.791 36.0693H50.631C50.279 36.0693 49.975 35.9413 49.719 35.6853C49.463 35.4293 49.335 35.1253 49.335 34.7733V33.3333C47.671 35.4773 45.319 36.5493 42.279 36.5493C39.239 36.5493 36.775 35.6533 34.887 33.8613C32.999 32.0373 32.055 29.2373 32.055 25.4613ZM48.615 25.1733V21.6213C48.519 20.0213 47.719 19.2213 46.215 19.2213C44.615 19.2213 43.815 20.1493 43.815 22.0053V25.1733C43.815 27.0293 44.615 27.9573 46.215 27.9573C47.815 27.9573 48.615 27.0293 48.615 25.1733ZM64.6444 25.6533V12.4053C64.6444 12.0533 64.7724 11.7493 65.0284 11.4933C65.2844 11.2373 65.5884 11.1093 65.9404 11.1093H75.1084C75.4604 11.1093 75.7644 11.2373 76.0204 11.4933C76.2764 11.7493 76.4044 12.0533 76.4044 12.4053V25.3173C76.4044 27.0773 77.2044 27.9573 78.8044 27.9573C80.4044 27.9573 81.2044 27.0773 81.2044 25.3173V12.4053C81.2044 12.0533 81.3324 11.7493 81.5884 11.4933C81.8444 11.2373 82.1484 11.1093 82.5004 11.1093H91.6204C91.9724 11.1093 92.2764 11.2373 92.5324 11.4933C92.7884 11.7493 92.9164 12.0533 92.9164 12.4053V34.7733C92.9164 35.1253 92.7884 35.4293 92.5324 35.6853C92.2764 35.9413 91.9724 36.0693 91.6204 36.0693H83.2204C82.8684 36.0693 82.5644 35.9413 82.3084 35.6853C82.0524 35.4293 81.9244 35.1253 81.9244 34.7733V33.1893C80.4204 35.4293 77.7644 36.5493 73.9564 36.5493C71.3324 36.5493 69.1244 35.6373 67.3324 33.8133C65.5404 31.9573 64.6444 29.2373 64.6444 25.6533ZM109.937 15.2373V23.3013C109.937 25.8933 111.121 27.1893 113.489 27.1893C115.313 27.1893 116.513 26.3253 117.089 24.5973C117.249 24.0533 117.441 23.6853 117.665 23.4933C117.921 23.3013 118.321 23.2053 118.865 23.2053H128.657C128.945 23.2053 129.185 23.3173 129.377 23.5413C129.601 23.7333 129.713 23.9733 129.713 24.2613C129.713 27.0453 128.913 29.3813 127.313 31.2693C124.369 34.7893 119.777 36.5493 113.537 36.5493C108.641 36.5493 104.737 35.4773 101.825 33.3333C98.9129 31.1573 97.4569 27.8293 97.4569 23.3493V15.1893C97.4569 10.8053 98.9449 7.50933 101.921 5.30133C104.897 3.09333 108.769 1.98933 113.537 1.98933C119.777 1.98933 124.369 3.74933 127.313 7.26933C128.913 9.15734 129.713 11.4933 129.713 14.2773C129.713 14.5653 129.601 14.8213 129.377 15.0453C129.185 15.2373 128.945 15.3333 128.657 15.3333H118.865C118.353 15.3333 117.969 15.2373 117.713 15.0453C117.489 14.8533 117.281 14.4853 117.089 13.9413C116.481 12.2133 115.281 11.3493 113.489 11.3493C111.121 11.3493 109.937 12.6453 109.937 15.2373ZM132.836 28.9173C132.836 24.5973 136.34 21.8293 143.348 20.6133L148.436 19.7973C148.436 18.8373 148.356 18.1973 148.196 17.8773C148.036 17.5253 147.652 17.3493 147.044 17.3493C146.468 17.3493 145.892 17.6053 145.316 18.1173C144.74 18.6293 144.196 18.8853 143.684 18.8853H135.524C134.82 18.8853 134.468 18.5493 134.468 17.8773C134.468 17.1733 134.708 16.4373 135.188 15.6693C135.7 14.8693 136.42 14.0853 137.348 13.3173C138.308 12.5493 139.636 11.9093 141.332 11.3973C143.06 10.8853 144.98 10.6293 147.092 10.6293C151.38 10.6293 154.596 11.5253 156.74 13.3173C158.884 15.1093 159.956 17.6693 159.956 20.9973V34.7733C159.956 35.1253 159.828 35.4293 159.572 35.6853C159.316 35.9413 159.012 36.0693 158.66 36.0693H150.26C149.908 36.0693 149.604 35.9413 149.348 35.6853C149.092 35.4293 148.964 35.1253 148.964 34.7733V33.4293C147.46 35.5093 145.268 36.5493 142.388 36.5493C139.508 36.5493 137.188 35.8293 135.428 34.3893C133.7 32.9173 132.836 31.0933 132.836 28.9173ZM145.46 29.4453C147.54 29.4453 148.58 28.1973 148.58 25.7013L145.748 26.3253C144.34 26.6453 143.636 27.2373 143.636 28.1013C143.636 28.4853 143.796 28.8053 144.116 29.0613C144.436 29.3173 144.884 29.4453 145.46 29.4453ZM175.006 12.4053V14.0853C177.246 12.1013 179.742 11.1093 182.494 11.1093H184.798C185.15 11.1093 185.454 11.2373 185.71 11.4933C185.966 11.7493 186.094 12.0533 186.094 12.4053V19.8933C186.094 20.2453 185.966 20.5493 185.71 20.8053C185.454 21.0613 185.15 21.1893 184.798 21.1893H178.606C177.742 21.1893 177.054 21.3973 176.542 21.8133C176.062 22.1973 175.79 22.7253 175.726 23.3973V34.7733C175.726 35.1253 175.598 35.4293 175.342 35.6853C175.086 35.9413 174.782 36.0693 174.43 36.0693H165.31C164.958 36.0693 164.654 35.9413 164.398 35.6853C164.142 35.4293 164.014 35.1253 164.014 34.7733V12.4053C164.014 12.0533 164.142 11.7493 164.398 11.4933C164.654 11.2373 164.958 11.1093 165.31 11.1093H173.71C174.062 11.1093 174.366 11.2373 174.622 11.4933C174.878 11.7493 175.006 12.0533 175.006 12.4053ZM215.291 26.4213H200.987V26.6613C200.987 28.6133 201.611 29.5893 202.859 29.5893C203.211 29.5893 203.643 29.3333 204.155 28.8213C204.667 28.3093 205.227 28.0533 205.835 28.0533H214.907C215.611 28.0533 215.963 28.4053 215.963 29.1093C215.963 30.6773 214.779 32.3093 212.411 34.0053C210.075 35.7013 206.891 36.5493 202.859 36.5493C198.859 36.5493 195.579 35.5093 193.019 33.4293C190.491 31.3173 189.227 28.4213 189.227 24.7413V22.4373C189.227 18.9493 190.523 16.1173 193.115 13.9413C195.707 11.7333 199.099 10.6293 203.291 10.6293C207.515 10.6293 210.779 11.8613 213.083 14.3253C215.419 16.7893 216.587 19.9093 216.587 23.6853V25.1253C216.587 25.4773 216.459 25.7813 216.203 26.0373C215.947 26.2933 215.643 26.4213 215.291 26.4213ZM204.827 20.2293C204.827 18.3093 204.187 17.3493 202.907 17.3493C201.627 17.3493 200.987 18.3093 200.987 20.2293V20.4213H204.827V20.2293ZM205.355 0.741333H214.331C214.939 0.741333 215.243 1.06133 215.243 1.70133C215.243 1.92533 215.163 2.11733 215.003 2.27733L207.419 8.27733C207.067 8.59733 206.411 8.75734 205.451 8.75734H199.211C198.699 8.75734 198.443 8.50134 198.443 7.98933C198.443 7.73333 198.523 7.52533 198.683 7.36533L203.579 1.65334C204.123 1.04533 204.715 0.741333 205.355 0.741333Z" fill="#3BB4CA"/>
</svg>
