<svg width="217" height="37" viewBox="0 0 217 37" fill="none" xmlns="http://www.w3.org/2000/svg">
<path d="M11.64 26.64H26.424C26.776 26.64 27.08 26.768 27.336 27.024C27.592 27.28 27.72 27.584 27.72 27.936V34.704C27.72 35.056 27.592 35.36 27.336 35.616C27.08 35.872 26.776 36 26.424 36H1.416C1.064 36 0.76 35.872 0.504 35.616C0.248 35.36 0.12 35.056 0.12 34.704V3.696C0.12 3.344 0.248 3.04 0.504 2.784C0.76 2.528 1.064 2.4 1.416 2.4H26.04C26.392 2.4 26.696 2.528 26.952 2.784C27.208 3.04 27.336 3.344 27.336 3.696V10.464C27.336 10.816 27.208 11.12 26.952 11.376C26.696 11.632 26.392 11.76 26.04 11.76H11.64V14.784H24.984C25.336 14.784 25.64 14.912 25.896 15.168C26.152 15.424 26.28 15.728 26.28 16.08V22.32C26.28 22.672 26.152 22.976 25.896 23.232C25.64 23.488 25.336 23.616 24.984 23.616H11.64V26.64ZM32.055 25.392V21.6C32.055 18.016 33.015 15.28 34.935 13.392C36.855 11.504 39.191 10.56 41.943 10.56C44.727 10.56 46.951 11.312 48.615 12.816V3.216C48.615 2.864 48.743 2.56 48.999 2.304C49.255 2.048 49.559 1.92 49.911 1.92H58.791C59.143 1.92 59.447 2.048 59.703 2.304C59.959 2.56 60.087 2.864 60.087 3.216V34.704C60.087 35.056 59.959 35.36 59.703 35.616C59.447 35.872 59.143 36 58.791 36H50.631C50.279 36 49.975 35.872 49.719 35.616C49.463 35.36 49.335 35.056 49.335 34.704V33.264C47.671 35.408 45.319 36.48 42.279 36.48C39.239 36.48 36.775 35.584 34.887 33.792C32.999 31.968 32.055 29.168 32.055 25.392ZM48.615 25.104V21.552C48.519 19.952 47.719 19.152 46.215 19.152C44.615 19.152 43.815 20.08 43.815 21.936V25.104C43.815 26.96 44.615 27.888 46.215 27.888C47.815 27.888 48.615 26.96 48.615 25.104ZM64.6444 25.584V12.336C64.6444 11.984 64.7724 11.68 65.0284 11.424C65.2844 11.168 65.5884 11.04 65.9404 11.04H75.1084C75.4604 11.04 75.7644 11.168 76.0204 11.424C76.2764 11.68 76.4044 11.984 76.4044 12.336V25.248C76.4044 27.008 77.2044 27.888 78.8044 27.888C80.4044 27.888 81.2044 27.008 81.2044 25.248V12.336C81.2044 11.984 81.3324 11.68 81.5884 11.424C81.8444 11.168 82.1484 11.04 82.5004 11.04H91.6204C91.9724 11.04 92.2764 11.168 92.5324 11.424C92.7884 11.68 92.9164 11.984 92.9164 12.336V34.704C92.9164 35.056 92.7884 35.36 92.5324 35.616C92.2764 35.872 91.9724 36 91.6204 36H83.2204C82.8684 36 82.5644 35.872 82.3084 35.616C82.0524 35.36 81.9244 35.056 81.9244 34.704V33.12C80.4204 35.36 77.7644 36.48 73.9564 36.48C71.3324 36.48 69.1244 35.568 67.3324 33.744C65.5404 31.888 64.6444 29.168 64.6444 25.584ZM109.937 15.168V23.232C109.937 25.824 111.121 27.12 113.489 27.12C115.313 27.12 116.513 26.256 117.089 24.528C117.249 23.984 117.441 23.616 117.665 23.424C117.921 23.232 118.321 23.136 118.865 23.136H128.657C128.945 23.136 129.185 23.248 129.377 23.472C129.601 23.664 129.713 23.904 129.713 24.192C129.713 26.976 128.913 29.312 127.313 31.2C124.369 34.72 119.777 36.48 113.537 36.48C108.641 36.48 104.737 35.408 101.825 33.264C98.9129 31.088 97.4569 27.76 97.4569 23.28V15.12C97.4569 10.736 98.9449 7.44 101.921 5.232C104.897 3.024 108.769 1.92 113.537 1.92C119.777 1.92 124.369 3.68 127.313 7.2C128.913 9.088 129.713 11.424 129.713 14.208C129.713 14.496 129.601 14.752 129.377 14.976C129.185 15.168 128.945 15.264 128.657 15.264H118.865C118.353 15.264 117.969 15.168 117.713 14.976C117.489 14.784 117.281 14.416 117.089 13.872C116.481 12.144 115.281 11.28 113.489 11.28C111.121 11.28 109.937 12.576 109.937 15.168ZM132.836 28.848C132.836 24.528 136.34 21.76 143.348 20.544L148.436 19.728C148.436 18.768 148.356 18.128 148.196 17.808C148.036 17.456 147.652 17.28 147.044 17.28C146.468 17.28 145.892 17.536 145.316 18.048C144.74 18.56 144.196 18.816 143.684 18.816H135.524C134.82 18.816 134.468 18.48 134.468 17.808C134.468 17.104 134.708 16.368 135.188 15.6C135.7 14.8 136.42 14.016 137.348 13.248C138.308 12.48 139.636 11.84 141.332 11.328C143.06 10.816 144.98 10.56 147.092 10.56C151.38 10.56 154.596 11.456 156.74 13.248C158.884 15.04 159.956 17.6 159.956 20.928V34.704C159.956 35.056 159.828 35.36 159.572 35.616C159.316 35.872 159.012 36 158.66 36H150.26C149.908 36 149.604 35.872 149.348 35.616C149.092 35.36 148.964 35.056 148.964 34.704V33.36C147.46 35.44 145.268 36.48 142.388 36.48C139.508 36.48 137.188 35.76 135.428 34.32C133.7 32.848 132.836 31.024 132.836 28.848ZM145.46 29.376C147.54 29.376 148.58 28.128 148.58 25.632L145.748 26.256C144.34 26.576 143.636 27.168 143.636 28.032C143.636 28.416 143.796 28.736 144.116 28.992C144.436 29.248 144.884 29.376 145.46 29.376ZM175.006 12.336V14.016C177.246 12.032 179.742 11.04 182.494 11.04H184.798C185.15 11.04 185.454 11.168 185.71 11.424C185.966 11.68 186.094 11.984 186.094 12.336V19.824C186.094 20.176 185.966 20.48 185.71 20.736C185.454 20.992 185.15 21.12 184.798 21.12H178.606C177.742 21.12 177.054 21.328 176.542 21.744C176.062 22.128 175.79 22.656 175.726 23.328V34.704C175.726 35.056 175.598 35.36 175.342 35.616C175.086 35.872 174.782 36 174.43 36H165.31C164.958 36 164.654 35.872 164.398 35.616C164.142 35.36 164.014 35.056 164.014 34.704V12.336C164.014 11.984 164.142 11.68 164.398 11.424C164.654 11.168 164.958 11.04 165.31 11.04H173.71C174.062 11.04 174.366 11.168 174.622 11.424C174.878 11.68 175.006 11.984 175.006 12.336ZM215.291 26.352H200.987V26.592C200.987 28.544 201.611 29.52 202.859 29.52C203.211 29.52 203.643 29.264 204.155 28.752C204.667 28.24 205.227 27.984 205.835 27.984H214.907C215.611 27.984 215.963 28.336 215.963 29.04C215.963 30.608 214.779 32.24 212.411 33.936C210.075 35.632 206.891 36.48 202.859 36.48C198.859 36.48 195.579 35.44 193.019 33.36C190.491 31.248 189.227 28.352 189.227 24.672V22.368C189.227 18.88 190.523 16.048 193.115 13.872C195.707 11.664 199.099 10.56 203.291 10.56C207.515 10.56 210.779 11.792 213.083 14.256C215.419 16.72 216.587 19.84 216.587 23.616V25.056C216.587 25.408 216.459 25.712 216.203 25.968C215.947 26.224 215.643 26.352 215.291 26.352ZM204.827 20.16C204.827 18.24 204.187 17.28 202.907 17.28C201.627 17.28 200.987 18.24 200.987 20.16V20.352H204.827V20.16ZM205.355 0.671997H214.331C214.939 0.671997 215.243 0.991998 215.243 1.632C215.243 1.856 215.163 2.048 215.003 2.208L207.419 8.208C207.067 8.528 206.411 8.688 205.451 8.688H199.211C198.699 8.688 198.443 8.432 198.443 7.92C198.443 7.664 198.523 7.456 198.683 7.296L203.579 1.584C204.123 0.975998 204.715 0.671997 205.355 0.671997Z" fill="white"/>
</svg>
