<svg width="42" height="42" viewBox="0 0 42 42" fill="none" xmlns="http://www.w3.org/2000/svg">
<path d="M15.0531 6.5625C10.3924 6.5625 6.5625 10.3871 6.5625 15.0531V26.9469C6.5625 31.6076 10.3871 35.4375 15.0531 35.4375H26.9469C31.6076 35.4375 35.4375 31.6129 35.4375 26.9469V15.0544C35.4375 10.3924 31.6129 6.5625 26.9469 6.5625H15.0531ZM15.0531 9.1875H26.9469C27.7175 9.18646 28.4807 9.33747 29.1928 9.63188C29.9049 9.92628 30.552 10.3583 31.0968 10.9032C31.6417 11.448 32.0737 12.0951 32.3681 12.8072C32.6625 13.5193 32.8135 14.2825 32.8125 15.0531V26.9469C32.8135 27.7175 32.6625 28.4807 32.3681 29.1928C32.0737 29.9049 31.6417 30.552 31.0968 31.0968C30.552 31.6417 29.9049 32.0737 29.1928 32.3681C28.4807 32.6625 27.7175 32.8135 26.9469 32.8125H15.0544C14.2837 32.8137 13.5204 32.6628 12.8081 32.3685C12.0958 32.0742 11.4486 31.6422 10.9036 31.0973C10.3586 30.5524 9.92649 29.9053 9.632 29.1931C9.33752 28.4809 9.18646 27.7176 9.1875 26.9469V15.0544C9.18629 14.2837 9.33717 13.5204 9.6315 12.8081C9.92583 12.0958 10.3578 11.4486 10.9027 10.9036C11.4476 10.3586 12.0947 9.92649 12.8069 9.632C13.5191 9.33752 14.2824 9.18646 15.0531 9.1875ZM28.7516 12.0592C28.5953 12.0586 28.4403 12.0888 28.2957 12.1484C28.1512 12.2079 28.0198 12.2954 27.9092 12.406C27.7987 12.5165 27.7111 12.6479 27.6516 12.7925C27.5921 12.9371 27.5618 13.092 27.5625 13.2484C27.5625 13.9099 28.0901 14.4375 28.7516 14.4375C28.9081 14.4384 29.0632 14.4082 29.2079 14.3488C29.3526 14.2893 29.4842 14.2018 29.5949 14.0912C29.7056 13.9807 29.7932 13.8492 29.8528 13.7046C29.9124 13.5599 29.9428 13.4048 29.9421 13.2484C29.9428 13.0919 29.9124 12.9369 29.8528 12.7922C29.7932 12.6475 29.7056 12.5161 29.5949 12.4055C29.4842 12.2949 29.3526 12.2074 29.2079 12.148C29.0632 12.0885 28.9081 12.0584 28.7516 12.0592ZM21 13.125C16.6687 13.125 13.125 16.6687 13.125 21C13.125 25.3312 16.6687 28.875 21 28.875C25.3312 28.875 28.875 25.3312 28.875 21C28.875 16.6687 25.3312 13.125 21 13.125ZM21 15.75C23.9177 15.75 26.25 18.0823 26.25 21C26.25 23.9177 23.9177 26.25 21 26.25C18.0823 26.25 15.75 23.9177 15.75 21C15.75 18.0823 18.0823 15.75 21 15.75Z" fill="#3E6C5F"/>
</svg>
