<?xml version="1.0" encoding="utf-8"?>
<!-- Generator: Adobe Illustrator 25.2.0, SVG Export Plug-In . SVG Version: 6.00 Build 0)  -->
<svg version="1.1" id="Layer_1" focusable="false" xmlns="http://www.w3.org/2000/svg" xmlns:xlink="http://www.w3.org/1999/xlink"
	 x="0px" y="0px" viewBox="0 0 512 512" style="enable-background:new 0 0 512 512;" xml:space="preserve">
<style type="text/css">
	.st0{clip-path:url(#SVGID_2_);}
</style>
<path d="M215.9,277.7L69,321.1c-6.1,1.9-10.3,7.6-10.3,14v120c-4.8-1.2-9.7-1.8-14.7-1.8C19.7,453.2,0,466.4,0,482.6
	S19.7,512,44.1,512s44.1-13.2,44.1-29.4V375.4l117.5-34.4v84.7c-4.8-1.2-9.7-1.8-14.7-1.8c-24.3,0-44.1,13.2-44.1,29.4
	c0,16.2,19.7,29.4,44.1,29.4s44.1-13.2,44.1-29.4V291.7c0-8.1-6.6-14.7-14.7-14.7C218.8,277,217.3,277.2,215.9,277.7z"/>
<path d="M396.6,239.9l-80,23.6c-3.3,1-5.6,4.1-5.6,7.6v65.3c-2.6-0.6-5.3-1-8-1c-13.2,0-24,7.2-24,16c0,8.8,10.7,16,24,16
	c13.2,0,24-7.2,24-16v-58.4l64-18.7v46.2c-2.6-0.6-5.3-1-8-1c-13.2,0-24,7.2-24,16c0,8.8,10.7,16,24,16s24-7.2,24-16v-88
	c0-4.4-3.6-8-8-8C398.2,239.5,397.4,239.6,396.6,239.9z"/>
<g>
	<g>
		<defs>
			<path id="SVGID_1_" d="M226.3,21.9c-48.3,9.4-87.3,48.3-96.8,96.5c-18,91,64.1,158.8,125.9,149.2c20-3.1,29.9-26.6,20.7-44.6
				c-11.2-22.1,4.8-47.9,29.6-47.9h38.8c17.4,0,31.5-14.4,31.6-31.8C375.8,66.7,306,6.4,226.3,21.9z M173.7,175.1
				c-8.6,0-15.6-7-15.6-15.6s7-15.6,15.6-15.6s15.6,7,15.6,15.6S182.3,175.1,173.7,175.1z M189.2,112.9c-8.6,0-15.6-7-15.6-15.6
				s7-15.6,15.6-15.6s15.6,7,15.6,15.6S197.8,112.9,189.2,112.9z M251.5,81.7c-8.6,0-15.6-7-15.6-15.6s7-15.6,15.6-15.6
				c8.6,0,15.6,7,15.6,15.6S260.1,81.7,251.5,81.7z M313.7,112.9c-8.6,0-15.6-7-15.6-15.6s7-15.6,15.6-15.6s15.6,7,15.6,15.6
				S322.4,112.9,313.7,112.9z"/>
		</defs>
		<clipPath id="SVGID_2_">
			<use xlink:href="#SVGID_1_"  style="overflow:visible;"/>
		</clipPath>
		<g class="st0">
		</g>
	</g>
</g>
</svg>
