<?xml version="1.0" encoding="utf-8"?>
<!-- Generator: Adobe Illustrator 25.2.0, SVG Export Plug-In . SVG Version: 6.00 Build 0)  -->
<svg version="1.1" id="Layer_1" xmlns="http://www.w3.org/2000/svg" xmlns:xlink="http://www.w3.org/1999/xlink" x="0px" y="0px"
	 viewBox="0 0 84 84" style="enable-background:new 0 0 84 84;" xml:space="preserve">
<style type="text/css">
	.st0{fill:#FE8D03;}
</style>
<path class="st0" d="M78.8,47.2V42H63v26.2h5.2V57.8h7.9v-5.2h-7.9v-5.2H78.8z"/>
<path class="st0" d="M49.9,68.2H39.4V42h10.5c2.1,0,4.1,0.8,5.6,2.3s2.3,3.5,2.3,5.6v10.5c0,2.1-0.8,4.1-2.3,5.6S52,68.2,49.9,68.2z
	 M44.6,63h5.2c0.7,0,1.4-0.3,1.9-0.8s0.8-1.2,0.8-1.9V49.9c0-0.7-0.3-1.4-0.8-1.9s-1.2-0.8-1.9-0.8h-5.2V63z"/>
<path class="st0" d="M28.9,42H15.8v26.2H21v-7.9h7.9c1.4,0,2.7-0.6,3.7-1.5s1.5-2.3,1.5-3.7v-7.9c0-1.4-0.6-2.7-1.5-3.7
	C31.6,42.6,30.3,42,28.9,42z M21,55.1v-7.9h7.9v7.9H21z"/>
<path class="st0" d="M57.8,36.8V26.2c0-0.3-0.1-0.7-0.2-1c-0.1-0.3-0.3-0.6-0.6-0.8L38.6,6c-0.2-0.3-0.5-0.5-0.8-0.6s-0.7-0.2-1-0.2
	H10.5c-1.4,0-2.7,0.6-3.7,1.5c-1,1-1.5,2.3-1.5,3.7v63c0,1.4,0.6,2.7,1.5,3.7c1,1,2.3,1.5,3.7,1.5h42v-5.2h-42v-63h21v15.8
	c0,1.4,0.6,2.7,1.5,3.7c1,1,2.3,1.5,3.7,1.5h15.8v5.2H57.8z M36.8,26.2V11.6l14.7,14.7H36.8z"/>
</svg>
