<?xml version="1.0" encoding="utf-8"?>
<!-- Generator: Adobe Illustrator 25.2.0, SVG Export Plug-In . SVG Version: 6.00 Build 0)  -->
<svg version="1.1" id="Layer_1" xmlns="http://www.w3.org/2000/svg" xmlns:xlink="http://www.w3.org/1999/xlink" x="0px" y="0px"
	 viewBox="0 0 84 84" style="enable-background:new 0 0 84 84;" xml:space="preserve">
<style type="text/css">
	.st0{fill:#3BB4CA;}
</style>
<path class="st0" d="M78.75,47.25V42H63v26.25h5.25v-10.5h7.88V52.5h-7.88v-5.25H78.75z"/>
<path class="st0" d="M49.88,68.25h-10.5V42h10.5c2.09,0,4.09,0.83,5.57,2.31s2.31,3.48,2.31,5.57v10.5c0,2.09-0.83,4.09-2.31,5.57
	S51.96,68.25,49.88,68.25z M44.62,63h5.25c0.7,0,1.36-0.28,1.86-0.77s0.77-1.16,0.77-1.86v-10.5c0-0.7-0.28-1.36-0.77-1.86
	s-1.16-0.77-1.86-0.77h-5.25V63z"/>
<path class="st0" d="M28.88,42H15.75v26.25H21v-7.88h7.88c1.39,0,2.73-0.56,3.71-1.54c0.98-0.98,1.54-2.32,1.54-3.71v-7.88
	c0-1.39-0.56-2.73-1.54-3.71C31.6,42.56,30.27,42,28.88,42z M21,55.12v-7.88h7.88l0,7.88H21z"/>
<path class="st0" d="M57.75,36.75v-10.5c0.01-0.34-0.06-0.69-0.19-1.01c-0.14-0.32-0.34-0.6-0.6-0.83L38.59,6.04
	c-0.23-0.26-0.52-0.46-0.83-0.6s-0.66-0.2-1.01-0.19H10.5c-1.39,0-2.72,0.56-3.71,1.54C5.81,7.78,5.25,9.11,5.25,10.5v63
	c0,1.39,0.55,2.73,1.54,3.71c0.98,0.98,2.32,1.54,3.71,1.54h42V73.5h-42v-63h21v15.75c0,1.39,0.56,2.72,1.54,3.71
	c0.98,0.98,2.32,1.54,3.71,1.54H52.5v5.25H57.75z M36.75,26.25v-14.7l14.7,14.7H36.75z"/>
</svg>
