<?xml version="1.0" encoding="utf-8"?>
<!-- Generator: Adobe Illustrator 25.2.0, SVG Export Plug-In . SVG Version: 6.00 Build 0)  -->
<svg version="1.1" id="Layer_1" focusable="false" xmlns="http://www.w3.org/2000/svg" xmlns:xlink="http://www.w3.org/1999/xlink"
	 x="0px" y="0px" viewBox="0 0 640 512" style="enable-background:new 0 0 640 512;" xml:space="preserve">
<style type="text/css">
	.st0{fill:url(#SVGID_1_);}
</style>
<linearGradient id="SVGID_1_" gradientUnits="userSpaceOnUse" x1="320" y1="512" x2="320" y2="-8.390844e-05">
	<stop  offset="0" style="stop-color:#FFFFFF"/>
	<stop  offset="0.291" style="stop-color:#FEC47C"/>
	<stop  offset="0.4006" style="stop-color:#FEA73D"/>
	<stop  offset="1" style="stop-color:#FE8D03"/>
</linearGradient>
<path class="st0" d="M0,224v272c0,8.8,7.2,16,16,16h80V192H32C14.3,192,0,206.3,0,224z M360,176h-24v-40c0-4.4-3.6-8-8-8h-16
	c-4.4,0-8,3.6-8,8v64c0,4.4,3.6,8,8,8h48c4.4,0,8-3.6,8-8v-16C368,179.6,364.4,176,360,176z M497.8,112L337.8,5.4
	c-10.8-7.2-24.7-7.2-35.5,0L142.2,112C133.3,118,128,128,128,138.7V512h128V368c0-8.8,7.2-16,16-16h96c8.8,0,16,7.2,16,16v144h128
	V138.7C512,128,506.6,118,497.8,112z M320,256c-44.2,0-80-35.8-80-80s35.8-80,80-80s80,35.8,80,80S364.2,256,320,256z M608,192h-64
	v320h80c8.8,0,16-7.2,16-16V224C640,206.3,625.7,192,608,192z"/>
</svg>
