<?xml version="1.0" encoding="utf-8"?>
<!-- Generator: Adobe Illustrator 25.2.0, SVG Export Plug-In . SVG Version: 6.00 Build 0)  -->
<svg version="1.1" id="Layer_1" xmlns="http://www.w3.org/2000/svg" xmlns:xlink="http://www.w3.org/1999/xlink" x="0px" y="0px"
	 viewBox="0 0 74 75" style="enable-background:new 0 0 74 75;" xml:space="preserve">
<style type="text/css">
	.st0{fill:#3E6C5F;}
</style>
<path class="st0" d="M36,59.21v-2.45h-7.36v12.27h2.45v-4.91h3.68v-2.45h-3.68v-2.45H36z"/>
<path class="st0" d="M22.51,69.03H17.6V56.76h4.91c0.98,0,1.91,0.39,2.6,1.08s1.08,1.63,1.08,2.6v4.91c0,0.98-0.39,1.91-1.08,2.6
	C24.42,68.64,23.48,69.03,22.51,69.03z M20.05,66.57h2.45c0.33,0,0.64-0.13,0.87-0.36c0.23-0.23,0.36-0.54,0.36-0.87v-4.91
	c0-0.33-0.13-0.64-0.36-0.87s-0.54-0.36-0.87-0.36h-2.45V66.57z"/>
<path class="st0" d="M12.69,56.76H6.56v12.27h2.45v-3.68h3.68c0.65,0,1.27-0.26,1.73-0.72c0.46-0.46,0.72-1.08,0.72-1.73v-3.68
	c0-0.65-0.26-1.27-0.72-1.73C13.97,57.02,13.34,56.76,12.69,56.76z M9.01,62.89v-3.68h3.68l0,3.68H9.01z"/>
<path class="st0" d="M26.19,54.31V49.4c0-0.16-0.03-0.32-0.09-0.47c-0.06-0.15-0.16-0.28-0.28-0.39l-8.59-8.59
	c-0.11-0.12-0.24-0.21-0.39-0.28c-0.15-0.06-0.31-0.09-0.47-0.09H4.11c-0.65,0-1.27,0.26-1.73,0.72c-0.46,0.46-0.72,1.08-0.72,1.73
	v29.44c0,0.65,0.26,1.27,0.72,1.73c0.46,0.46,1.08,0.72,1.73,0.72h19.63v-2.45H4.11V42.04h9.81v7.36c0,0.65,0.26,1.27,0.72,1.73
	c0.46,0.46,1.08,0.72,1.73,0.72h7.36v2.45H26.19z M16.37,49.4v-6.87l6.87,6.87H16.37z"/>
<path class="st0" d="M45.64,1.95H15.36C13.5,1.95,12,3.45,12,5.32V25.5c0,0.89,0.35,1.75,0.99,2.38c0.63,0.63,1.49,0.99,2.38,0.99
	h8.41v3.36h13.45v-3.36h8.41c1.85,0,3.35-1.51,3.35-3.36L49,5.32c0-0.89-0.35-1.75-0.99-2.38C47.38,2.31,46.53,1.95,45.64,1.95z
	 M45.64,25.5H15.36V5.32h30.27V25.5z M37.23,15.41l-11.77,6.73V8.68L37.23,15.41z"/>
<path class="st0" d="M72.43,55.2V33.55c0-0.86-0.69-1.55-1.55-1.55H49.75c-3.42,0-6.19,2.77-6.19,6.19v20.62
	c0,3.42,2.77,6.19,6.19,6.19h21.14c0.86,0,1.55-0.69,1.55-1.55v-1.03c0-0.48-0.23-0.92-0.57-1.21c-0.27-0.99-0.27-3.82,0-4.81
	C72.21,56.12,72.43,55.69,72.43,55.2L72.43,55.2z M51.81,40.64c0-0.21,0.17-0.39,0.39-0.39h13.66c0.21,0,0.39,0.17,0.39,0.39v1.29
	c0,0.21-0.17,0.39-0.39,0.39H52.2c-0.21,0-0.39-0.17-0.39-0.39V40.64z M51.81,44.76c0-0.21,0.17-0.39,0.39-0.39h13.66
	c0.21,0,0.39,0.17,0.39,0.39v1.29c0,0.21-0.17,0.39-0.39,0.39H52.2c-0.21,0-0.39-0.17-0.39-0.39V44.76z M68.14,60.88H49.75
	c-1.14,0-2.06-0.92-2.06-2.06c0-1.13,0.93-2.06,2.06-2.06h18.39C68.02,57.85,68.02,59.77,68.14,60.88z"/>
</svg>
