<?xml version="1.0" encoding="utf-8"?>
<!-- Generator: Adobe Illustrator 25.2.0, SVG Export Plug-In . SVG Version: 6.00 Build 0)  -->
<svg version="1.1" id="Layer_1" xmlns="http://www.w3.org/2000/svg" xmlns:xlink="http://www.w3.org/1999/xlink" x="0px" y="0px"
	 viewBox="0 0 84 84" style="enable-background:new 0 0 84 84;" xml:space="preserve">
<style type="text/css">
	.st0{fill:#FE8D03;}
</style>
<path class="st0" d="M41,63.7v-2.5h-7.4v12.3h2.5v-4.9h3.7v-2.4h-3.7v-2.5L41,63.7L41,63.7z"/>
<path class="st0" d="M27.5,73.5h-4.9V61.3h4.9c1,0,1.9,0.4,2.6,1.1s1.1,1.6,1.1,2.6v4.9c0,1-0.4,1.9-1.1,2.6
	C29.4,73.1,28.5,73.5,27.5,73.5z M25,71.1h2.5c0.3,0,0.6-0.1,0.9-0.4c0.2-0.2,0.4-0.5,0.4-0.9v-4.9c0-0.3-0.1-0.6-0.4-0.9
	c-0.2-0.2-0.5-0.4-0.9-0.4H25V71.1z"/>
<path class="st0" d="M17.7,61.3h-6.1v12.3H14v-3.7h3.7c0.6,0,1.3-0.3,1.7-0.7c0.5-0.5,0.7-1.1,0.7-1.7v-3.7c0-0.7-0.3-1.3-0.7-1.7
	C19,61.5,18.3,61.3,17.7,61.3z M14,67.4v-3.7h3.7v3.7H14z"/>
<path class="st0" d="M31.2,58.8v-4.9c0-0.2,0-0.3-0.1-0.5s-0.2-0.3-0.3-0.4l-8.6-8.6c-0.1-0.1-0.2-0.2-0.4-0.3
	c-0.1-0.1-0.3-0.1-0.5-0.1H9.1c-0.7,0-1.3,0.3-1.7,0.7c-0.5,0.5-0.7,1.1-0.7,1.7V76c0,0.7,0.3,1.3,0.7,1.7c0.5,0.5,1.1,0.7,1.7,0.7
	h19.6V76H9.1V46.5h9.8v7.4c0,0.7,0.3,1.3,0.7,1.7c0.5,0.5,1.1,0.7,1.7,0.7h7.4v2.5L31.2,58.8L31.2,58.8z M21.4,53.9V47l6.9,6.9H21.4
	z"/>
<path class="st0" d="M50.6,6.4H20.4c-1.9,0-3.4,1.5-3.4,3.4V30c0,0.9,0.4,1.8,1,2.4c0.6,0.6,1.5,1,2.4,1h8.4v3.4h13.5v-3.4h8.4
	c1.8,0,3.3-1.5,3.3-3.4l0-20.2c0-0.9-0.3-1.8-1-2.4C52.4,6.8,51.5,6.4,50.6,6.4z M50.6,30H20.4V9.8h30.3L50.6,30L50.6,30z
	 M42.2,19.9l-11.8,6.7V13.2L42.2,19.9z"/>
<path class="st0" d="M77.4,59.7V38c0-0.9-0.7-1.5-1.6-1.5H54.8c-3.4,0-6.2,2.8-6.2,6.2v20.6c0,3.4,2.8,6.2,6.2,6.2h21.1
	c0.9,0,1.6-0.7,1.6-1.6v-1c0-0.5-0.2-0.9-0.6-1.2c-0.3-1-0.3-3.8,0-4.8C77.2,60.6,77.4,60.2,77.4,59.7L77.4,59.7z M56.8,45.1
	c0-0.2,0.2-0.4,0.4-0.4h13.7c0.2,0,0.4,0.2,0.4,0.4v1.3c0,0.2-0.2,0.4-0.4,0.4H57.2c-0.2,0-0.4-0.2-0.4-0.4V45.1z M56.8,49.3
	c0-0.2,0.2-0.4,0.4-0.4h13.7c0.2,0,0.4,0.2,0.4,0.4v1.3c0,0.2-0.2,0.4-0.4,0.4H57.2c-0.2,0-0.4-0.2-0.4-0.4V49.3z M73.1,65.4H54.8
	c-1.1,0-2.1-0.9-2.1-2.1c0-1.1,0.9-2.1,2.1-2.1h18.4C73,62.3,73,64.3,73.1,65.4z"/>
</svg>
