<svg width="42" height="42" viewBox="0 0 42 42" fill="none" xmlns="http://www.w3.org/2000/svg">
<g clip-path="url(#clip0)">
<path d="M41.9173 7.99706C40.3453 8.6881 38.6804 9.14447 36.9758 9.35156C38.7726 8.27307 40.1179 6.58001 40.7623 4.58587C39.0627 5.57156 37.2129 6.27168 35.2866 6.65831C33.9912 5.27422 32.2752 4.35635 30.4049 4.04709C28.5346 3.73783 26.6145 4.05448 24.9425 4.9479C23.2705 5.84133 21.9401 7.26159 21.1578 8.98832C20.3754 10.7151 20.1847 12.6517 20.6154 14.4979C13.4584 14.1632 7.11375 10.7244 2.87044 5.52956C2.098 6.84322 1.69401 8.34083 1.701 9.86475C1.69995 11.2814 2.04874 12.6764 2.7164 13.9259C3.38407 15.1753 4.34994 16.2406 5.52825 17.0271C4.16276 16.9858 2.82701 16.6181 1.63275 15.9547V16.0584C1.63233 18.0469 2.31946 19.9743 3.57768 21.5141C4.8359 23.0539 6.58782 24.1112 8.5365 24.507C7.79834 24.7042 7.0378 24.8052 6.27375 24.8076C5.72119 24.8076 5.19356 24.7537 4.66725 24.6566C5.22182 26.3678 6.29607 27.8634 7.74048 28.9354C9.18489 30.0075 10.9276 30.6025 12.726 30.6377C9.67891 33.024 5.9191 34.3185 2.04881 34.314C1.3633 34.3167 0.67825 34.2781 -0.00262451 34.1985C3.94549 36.7283 8.53698 38.0713 13.2261 38.0677C29.064 38.0677 37.7186 24.9493 37.7186 13.5883C37.7186 13.2261 37.7186 12.8572 37.6911 12.4871C39.384 11.2738 40.843 9.76362 41.9974 8.02987L41.9173 7.99706Z" fill="white"/>
</g>
<defs>
<clipPath id="clip0">
<rect width="42" height="42" fill="white"/>
</clipPath>
</defs>
</svg>
