<?xml version="1.0" encoding="utf-8"?>
<!-- Generator: Adobe Illustrator 25.2.0, SVG Export Plug-In . SVG Version: 6.00 Build 0)  -->
<svg version="1.1" id="Layer_1" xmlns="http://www.w3.org/2000/svg" xmlns:xlink="http://www.w3.org/1999/xlink" x="0px" y="0px"
	 viewBox="0 0 84 84" style="enable-background:new 0 0 84 84;" xml:space="preserve">
<style type="text/css">
	.st0{fill:#FE8D03;}
</style>
<path class="st0" d="M73.5,10.5h-63c-3.9,0-7,3.1-7,7v42c0,1.9,0.7,3.6,2.1,4.9c1.3,1.3,3.1,2.1,4.9,2.1H28v7h28v-7h17.5
	c3.8,0,7-3.2,7-7v-42c0-1.9-0.7-3.6-2.1-4.9C77.1,11.2,75.4,10.5,73.5,10.5z M73.5,59.5h-63v-42h63V59.5z M56,38.5l-24.5,14v-28
	L56,38.5z"/>
</svg>
